<?xml version="1.0" standalone="no"?>
<!DOCTYPE svg PUBLIC "-//W3C//DTD SVG 20010904//EN"
 "http://www.w3.org/TR/2001/REC-SVG-20010904/DTD/svg10.dtd">
<svg version="1.0" xmlns="http://www.w3.org/2000/svg"
 width="128.000000pt" height="128.000000pt" viewBox="0 0 128.000000 128.000000"
 preserveAspectRatio="xMidYMid meet">

<g transform="translate(0.000000,128.000000) scale(0.100000,-0.100000)"
fill="#000000" stroke="none">
<path d="M501 1265 c-178 -39 -348 -172 -429 -336 -127 -256 -81 -540 118
-739 251 -252 649 -252 900 0 252 251 252 649 0 900 -155 156 -375 221 -589
175z m94 -251 c9 -48 34 -87 49 -76 9 7 58 9 75 3 2 0 -2 -8 -9 -16 -8 -9 -8
-15 -2 -15 6 0 9 -11 6 -24 -3 -17 1 -25 15 -29 14 -3 17 0 14 14 -3 11 0 19
8 19 7 0 9 -3 6 -7 -4 -3 0 -15 10 -25 10 -12 12 -18 4 -18 -7 0 -9 -5 -5 -11
9 -16 23 9 19 34 -4 16 -2 17 12 5 12 -9 15 -9 9 0 -4 7 -2 12 4 12 6 0 8 6 4
13 -4 6 -4 9 0 5 4 -3 6 -9 4 -12 -1 -3 6 -12 17 -21 16 -13 16 -15 3 -11 -11
3 -19 -2 -23 -15 -4 -10 -11 -17 -16 -14 -5 4 -9 -6 -10 -22 -2 -49 -8 -117
-13 -138 -2 -11 -5 -26 -5 -32 -1 -7 -5 -13 -9 -13 -10 0 -9 41 1 57 4 6 2 15
-4 19 -8 4 -9 3 -5 -4 4 -7 0 -12 -10 -12 -10 0 -14 3 -11 7 4 3 3 11 -2 17
-14 18 -23 69 -11 61 5 -3 10 -2 10 4 0 5 -6 11 -12 14 -10 3 -10 7 -1 17 8 9
9 19 2 32 -14 27 -27 14 -23 -24 3 -24 1 -29 -6 -18 -7 11 -10 5 -10 -22 0
-38 -6 -45 -25 -30 -17 12 -36 52 -29 63 3 5 1 16 -5 23 -6 7 -12 31 -14 54
-1 22 -6 38 -11 34 -5 -3 -6 3 -3 13 4 9 2 24 -4 31 -6 8 -9 21 -5 29 3 9 2
13 -4 10 -6 -3 -10 2 -10 11 0 14 -3 15 -12 6 -13 -13 -38 -16 -38 -4 0 7 49
41 61 42 4 0 10 -16 14 -36z m-77 -26 c-2 -7 2 -14 7 -14 6 -1 9 2 8 7 -4 11
24 12 30 2 12 -19 11 -67 0 -70 -7 -3 -13 0 -13 7 0 6 5 8 12 4 7 -4 8 -3 4 5
-4 6 -12 9 -17 5 -6 -3 -18 4 -26 16 -12 16 -18 19 -27 10 -8 -8 -7 -15 7 -24
9 -7 17 -17 17 -22 0 -13 42 -39 58 -36 10 3 10 -1 0 -18 -11 -17 -11 -22 2
-31 11 -8 8 -9 -15 -4 -35 7 -56 30 -48 53 4 15 3 15 -6 2 -13 -18 -15 -53 -2
-45 5 3 16 -4 24 -15 7 -11 17 -17 20 -13 4 3 7 -2 7 -12 0 -10 -3 -16 -6 -12
-3 3 -16 -3 -27 -14 -18 -17 -22 -17 -30 -4 -4 8 -6 19 -2 24 3 5 -2 17 -11
25 -8 9 -11 16 -5 16 6 0 8 7 5 15 -4 8 0 23 7 33 13 15 12 16 -3 3 -16 -12
-18 -11 -18 2 0 9 8 21 18 27 15 9 14 10 -6 5 -20 -6 -21 -4 -13 19 14 35 34
66 44 66 4 0 7 -6 5 -12z m222 -3 c0 -21 -24 -35 -40 -25 -10 7 -11 10 -2 10
6 0 11 3 11 8 -3 14 1 19 16 19 8 0 15 -6 15 -12z m40 -11 c0 -8 -19 -13 -24
-6 -3 5 1 9 9 9 8 0 15 -2 15 -3z m13 -59 c4 -8 2 -17 -3 -20 -6 -4 -10 3 -10
14 0 25 6 27 13 6z m-355 -175 c1 -61 -3 -98 -9 -95 -5 4 -9 13 -9 21 0 22
-36 58 -45 45 -3 -6 -1 -11 4 -11 6 0 11 -13 11 -28 0 -16 3 -32 7 -36 4 -4 9
-17 10 -31 3 -17 -2 -25 -18 -30 -11 -4 -23 -5 -25 -2 -11 10 -1 87 13 110 4
6 -1 8 -10 4 -21 -8 -22 6 -2 23 8 7 12 17 8 24 -3 6 5 1 19 -12 19 -17 25
-19 25 -7 0 8 -4 15 -8 15 -4 0 -3 16 1 34 4 19 5 37 3 40 -8 8 5 36 16 36 5
0 9 -45 9 -100z m426 56 c-1 -11 -3 -23 -3 -25 -1 -2 -9 3 -18 10 -16 13 -17
12 -4 -3 10 -13 18 -15 31 -8 14 7 19 5 23 -11 5 -17 3 -18 -10 -7 -12 10 -17
9 -28 -5 -6 -9 -16 -13 -21 -9 -5 4 2 -5 15 -20 22 -25 21 -33 -1 -29 -4 0
-12 -8 -18 -20 -10 -17 -9 -20 7 -19 31 4 43 0 43 -12 0 -6 -3 -8 -7 -5 -8 9
-33 -12 -33 -27 0 -6 5 -4 11 4 9 13 10 13 6 0 -2 -9 -13 -14 -28 -12 -32 5
-33 6 -20 43 6 18 7 35 3 38 -14 10 -10 71 5 71 17 0 17 11 -1 36 -13 16 -12
21 1 36 20 22 51 5 47 -26z m-461 -11 c-3 -9 -8 -14 -10 -11 -3 3 -2 9 2 15 9
16 15 13 8 -4z m127 -51 c0 -3 -6 -12 -14 -19 -17 -17 -30 -7 -15 12 12 13 29
18 29 7z m119 -21 c6 -10 11 -13 11 -8 0 14 20 -17 20 -32 0 -19 -27 -16 -36
5 -4 9 -6 21 -5 26 1 5 -4 13 -11 17 -9 6 -10 9 -1 9 7 0 17 -8 22 -17z m-152
-78 c0 -8 -4 -12 -9 -9 -5 3 -6 10 -3 15 9 13 12 11 12 -6z m245 3 c-9 -9 -15
-9 -24 0 -9 9 -7 12 12 12 19 0 21 -3 12 -12z m-433 -79 c-20 -17 -19 -24 3
-20 4 0 6 -16 4 -37 -2 -24 -8 -36 -16 -34 -11 3 -11 0 0 -12 9 -12 10 -16 0
-16 -6 0 -14 9 -17 20 -3 11 -9 17 -14 14 -5 -3 -5 6 1 20 5 14 7 39 4 56 -5
22 -2 31 10 36 9 3 13 11 9 17 -3 5 3 16 13 24 18 13 19 12 22 -17 2 -23 -3
-37 -19 -51z m151 67 c0 -3 -4 -8 -10 -11 -5 -3 -10 -1 -10 4 0 6 5 11 10 11
6 0 10 -2 10 -4z m-80 -91 c0 -8 -2 -15 -4 -15 -2 0 -6 7 -10 15 -3 8 -1 15 4
15 6 0 10 -7 10 -15z m-53 -121 c0 -7 -9 -12 -19 -11 -18 1 -23 9 -13 19 10
10 32 4 32 -8z"/>
<path d="M650 925 c-8 -9 -8 -15 -2 -15 12 0 26 19 19 26 -2 2 -10 -2 -17 -11z"/>
<path d="M639 888 c-1 -7 -1 -19 0 -27 2 -7 -2 -10 -8 -6 -6 3 -11 -1 -11 -9
0 -9 5 -16 11 -16 7 0 9 -10 4 -27 -6 -26 -6 -26 17 -11 13 8 24 24 26 34 3
16 1 17 -7 4 -9 -12 -11 -9 -11 13 0 19 5 27 18 27 15 1 15 2 -2 15 -24 18
-36 19 -37 3z"/>
<path d="M750 726 c0 -2 8 -10 18 -17 15 -13 16 -12 3 4 -13 16 -21 21 -21 13z"/>
<path d="M375 620 c-3 -6 1 -7 9 -4 18 7 21 14 7 14 -6 0 -13 -4 -16 -10z"/>
<path d="M647 689 c7 -7 15 -10 18 -7 3 3 -2 9 -12 12 -14 6 -15 5 -6 -5z"/>
</g>
</svg>
