<?xml version="1.0" standalone="no"?>
<!DOCTYPE svg PUBLIC "-//W3C//DTD SVG 20010904//EN"
 "http://www.w3.org/TR/2001/REC-SVG-20010904/DTD/svg10.dtd">
<svg version="1.0" xmlns="http://www.w3.org/2000/svg"
 width="128.000000pt" height="128.000000pt" viewBox="0 0 128.000000 128.000000"
 preserveAspectRatio="xMidYMid meet">
<metadata>
Created by potrace 1.16, written by Peter Selinger 2001-2019
</metadata>
<g transform="translate(0.000000,128.000000) scale(0.100000,-0.100000)"
fill="#000000" stroke="none">
<path d="M480 1265 c-228 -62 -409 -246 -466 -475 -24 -96 -15 -272 18 -362
70 -187 206 -324 396 -396 61 -24 80 -26 212 -26 132 0 151 2 212 26 189 72
324 207 396 396 24 61 26 80 26 212 0 132 -2 151 -26 212 -72 190 -209 326
-396 396 -86 32 -283 41 -372 17z m115 -251 c9 -48 34 -87 49 -76 9 7 58 9 75
3 2 0 -2 -8 -9 -16 -8 -9 -8 -15 -2 -15 6 0 9 -11 6 -24 -3 -17 1 -25 15 -29
14 -3 17 0 14 14 -3 11 0 19 8 19 7 0 9 -3 6 -7 -4 -3 0 -15 10 -25 10 -12 12
-18 4 -18 -7 0 -9 -5 -5 -11 9 -16 23 9 19 34 -4 16 -2 17 12 5 12 -9 15 -9 9
0 -4 7 -2 12 4 12 6 0 8 6 4 13 -4 6 -4 9 0 5 4 -3 6 -9 4 -12 -1 -3 6 -12 17
-21 16 -13 16 -15 3 -11 -11 3 -19 -2 -23 -15 -4 -10 -11 -17 -16 -14 -5 4 -9
-6 -10 -22 -2 -49 -8 -117 -13 -138 -2 -11 -5 -26 -5 -32 -1 -7 -5 -13 -9 -13
-10 0 -9 41 1 57 4 6 2 15 -4 19 -8 4 -9 3 -5 -4 4 -7 0 -12 -10 -12 -10 0
-14 3 -11 7 4 3 3 11 -2 17 -14 18 -23 69 -11 61 5 -3 10 -2 10 4 0 5 -6 11
-12 14 -10 3 -10 7 -1 17 8 9 9 19 2 32 -14 27 -27 14 -23 -24 3 -24 1 -29 -6
-18 -7 11 -10 5 -10 -22 0 -38 -6 -45 -25 -30 -17 12 -36 52 -29 63 3 5 1 16
-5 23 -6 7 -12 31 -14 54 -1 22 -6 38 -11 34 -5 -3 -6 3 -3 13 4 9 2 24 -4 31
-6 8 -9 21 -5 29 3 9 2 13 -4 10 -6 -3 -10 2 -10 11 0 14 -3 15 -12 6 -13 -13
-38 -16 -38 -4 0 7 49 41 61 42 4 0 10 -16 14 -36z"/>
</g>
</svg>
